<?xml version="1.0" standalone="no"?>
<!DOCTYPE svg PUBLIC "-//W3C//DTD SVG 20010904//EN"
 "http://www.w3.org/TR/2001/REC-SVG-20010904/DTD/svg10.dtd">
<svg version="1.0" xmlns="http://www.w3.org/2000/svg"
 width="460.000000pt" height="460.000000pt" viewBox="0 0 460.000000 460.000000"
 preserveAspectRatio="xMidYMid meet">
<metadata>
Created by potrace 1.11, written by Peter Selinger 2001-2013
</metadata>
<g transform="translate(0.000000,460.000000) scale(0.100000,-0.100000)"
fill="#000000" stroke="none">
<path d="M3770 4558 c-50 -39 -178 -164 -330 -325 -78 -82 -216 -210 -242
-224 -10 -5 -25 -26 -33 -47 -9 -20 -21 -41 -28 -47 -7 -5 -20 -22 -30 -37
-17 -28 -17 -28 8 -28 16 0 25 -6 25 -15 0 -9 -9 -15 -23 -15 -13 0 -28 -5
-34 -11 -8 -8 -13 -8 -17 0 -11 17 -37 13 -53 -6 -13 -16 -14 -15 -8 11 5 25
4 28 -14 23 -17 -4 -21 0 -21 18 0 23 -44 55 -77 55 -16 0 -17 -32 -1 -48 9
-9 7 -12 -9 -12 -12 0 -24 -6 -26 -12 -3 -7 -6 -3 -6 10 -1 12 -7 22 -15 22
-25 0 -44 -27 -39 -54 3 -15 1 -26 -5 -26 -6 0 -13 -12 -15 -27 -3 -25 -4 -24
-6 7 l-1 34 -35 -37 c-21 -22 -35 -47 -35 -63 0 -14 -4 -23 -9 -20 -5 3 -14
-8 -21 -24 -14 -33 -20 -36 -38 -18 -8 8 -15 8 -26 -2 -13 -10 -17 -9 -22 4
-7 18 -39 22 -49 6 -10 -16 -25 -1 -25 26 0 13 -4 24 -10 24 -5 0 -10 -5 -10
-10 0 -7 -6 -7 -19 -1 -14 8 -23 6 -36 -9 -10 -11 -22 -20 -27 -20 -5 0 -20
-12 -33 -27 -22 -26 -22 -29 -7 -46 15 -16 14 -19 -7 -40 l-22 -22 3 30 c2 19
-1 29 -8 28 -7 -1 -15 9 -18 23 -7 28 -26 23 -26 -7 0 -13 -6 -19 -17 -17 -13
2 -18 -5 -20 -32 -3 -32 -23 -69 -23 -42 0 18 -31 14 -47 -5 -13 -16 -14 -9
-9 55 5 58 3 72 -8 72 -8 0 -17 -6 -20 -12 -3 -7 -3 6 0 30 5 34 3 42 -10 42
-8 0 -19 -7 -24 -16 -7 -13 -13 -8 -30 27 -17 33 -22 38 -22 22 0 -27 -28 -31
-36 -5 -3 9 -10 25 -15 34 -13 25 -11 51 6 84 20 40 19 53 -7 63 -29 11 -58
-4 -58 -29 0 -10 -4 -22 -10 -25 -5 -3 -10 -19 -10 -35 0 -16 -5 -41 -10 -56
-11 -28 -5 -64 10 -64 5 0 11 9 15 19 6 21 36 22 43 2 5 -16 -17 -41 -38 -41
-10 0 -21 -10 -25 -22 -6 -22 -7 -21 -21 10 -16 37 -30 41 -39 11 -4 -13 -1
-25 9 -32 8 -7 18 -24 22 -39 5 -22 3 -28 -10 -28 -9 0 -16 -4 -16 -10 0 -5
-9 -10 -20 -10 -26 0 -25 -12 3 -46 63 -77 104 -102 101 -60 -1 9 3 15 10 13
6 -2 14 -30 18 -62 4 -31 12 -63 18 -70 11 -13 4 -45 -10 -45 -4 0 -13 7 -20
15 -11 13 -15 13 -21 3 -7 -11 -12 -11 -29 0 -27 17 -40 8 -40 -29 0 -16 -4
-29 -10 -29 -5 0 -8 21 -7 47 2 38 -1 48 -16 51 -14 3 -17 -4 -17 -48 0 -45
-2 -51 -14 -40 -8 6 -17 21 -19 33 -4 21 -4 21 -6 -1 0 -13 -6 -20 -11 -17
-14 9 -12 45 3 45 7 0 8 3 2 8 -5 4 -15 16 -21 26 -13 25 -41 43 -50 33 -4 -4
-2 -18 4 -32 9 -20 9 -25 -2 -25 -31 0 -41 11 -39 43 1 17 2 40 2 50 1 22 21
23 21 1 0 -13 3 -14 15 -4 9 7 12 22 9 40 -4 15 -1 31 5 34 6 4 9 11 6 16 -3
4 2 13 10 20 10 9 15 9 15 1 0 -6 7 -11 15 -11 27 0 19 65 -11 95 -20 20 -24
29 -15 38 6 6 11 19 11 29 0 10 7 18 15 18 20 0 19 24 -1 40 -9 9 -14 26 -12
48 4 45 28 56 28 13 0 -17 5 -31 10 -31 14 0 12 60 -3 89 -6 14 -24 28 -39 33
-24 8 -31 5 -64 -32 -29 -32 -39 -38 -50 -29 -8 6 -14 20 -14 30 0 29 -28 23
-44 -10 -9 -16 -25 -31 -36 -34 -12 -3 -26 -19 -33 -36 -18 -49 -68 -56 -60
-9 9 56 -109 180 -260 276 -42 26 -137 102 -221 177 -35 31 -86 73 -110 90
-16 11 -45 36 -65 55 -135 129 -248 200 -318 200 -34 0 -106 -37 -138 -70 -14
-14 -35 -53 -47 -86 -19 -51 -22 -79 -22 -214 1 -138 5 -174 37 -331 30 -146
43 -190 76 -254 23 -43 41 -84 41 -93 0 -8 10 -30 21 -49 12 -19 28 -66 35
-105 15 -77 36 -118 64 -125 18 -5 37 -33 22 -33 -10 0 -32 -59 -32 -84 0 -10
-11 -27 -25 -38 -28 -22 -33 -48 -10 -48 20 0 19 -26 -1 -34 -22 -9 -14 -52 9
-48 22 4 102 83 98 97 -1 5 1 7 5 3 4 -4 28 3 53 16 77 41 215 96 236 96 12 0
47 7 80 15 36 10 101 16 165 16 191 -1 374 -69 497 -185 18 -17 42 -39 53 -48
11 -10 20 -22 20 -27 0 -6 -15 4 -32 20 -50 46 -167 120 -212 135 -23 7 -70
24 -106 39 -61 25 -75 27 -245 28 -164 2 -186 0 -250 -21 -92 -31 -123 -46
-225 -111 -99 -63 -148 -113 -227 -231 -59 -88 -107 -205 -119 -293 -4 -27
-13 -51 -20 -54 -18 -6 -18 -33 -1 -33 14 0 39 -35 30 -44 -13 -12 -30 -5 -40
16 -9 22 -10 21 -44 -14 -33 -34 -37 -35 -92 -30 -42 3 -63 0 -82 -12 -14 -9
-25 -20 -25 -25 0 -16 80 -63 112 -66 18 -2 36 -4 40 -4 4 -1 8 -11 10 -23 3
-20 10 -23 49 -26 44 -3 47 -5 58 -41 22 -74 25 -126 7 -140 -9 -7 -16 -21
-16 -30 0 -18 42 -53 73 -61 11 -3 23 -12 25 -19 3 -8 0 -11 -7 -7 -15 10 -14
-16 3 -39 7 -10 11 -27 8 -37 -2 -10 1 -18 8 -18 10 0 9 -4 -1 -16 -10 -13
-10 -17 2 -25 12 -8 11 -11 -3 -23 -20 -15 -15 -78 8 -97 7 -6 10 -17 7 -25
-3 -9 1 -27 8 -41 11 -21 11 -27 2 -30 -16 -6 -17 -43 -2 -43 6 0 1 -12 -10
-27 -14 -17 -19 -34 -15 -47 6 -20 5 -20 -10 1 -9 12 -17 43 -18 68 -2 32 -9
52 -24 66 -13 12 -20 27 -18 34 3 7 1 16 -5 19 -6 4 -13 -9 -16 -31 -4 -21
-11 -49 -16 -63 -8 -17 -7 -26 0 -28 15 -5 14 -68 -1 -95 -7 -12 -13 -55 -13
-96 -1 -66 -4 -76 -25 -93 -98 -78 -108 -93 -78 -118 13 -11 19 -19 14 -20 -4
0 -1 -11 8 -24 10 -16 12 -27 5 -31 -6 -4 -7 -24 -3 -50 9 -64 0 -81 -52 -95
-42 -12 -94 -52 -94 -73 0 -14 64 -87 78 -87 16 0 15 -25 -2 -40 -17 -13 -10
-40 9 -40 7 0 16 11 19 25 7 26 30 33 42 13 4 -6 0 -16 -8 -22 -8 -6 -13 -16
-11 -21 2 -6 -10 -16 -27 -22 -19 -7 -28 -16 -25 -25 3 -7 -5 -17 -17 -23 -13
-6 -23 -18 -23 -28 0 -10 -11 -27 -25 -38 l-25 -19 22 -19 c12 -10 25 -31 29
-46 5 -22 2 -31 -22 -51 l-29 -24 23 -17 c21 -15 21 -17 6 -34 -15 -17 -15
-20 6 -48 16 -24 18 -31 7 -31 -8 0 -17 -7 -21 -15 -3 -8 -17 -15 -31 -15 -25
0 -25 0 -23 -80 l2 -80 153 0 c136 0 153 2 153 17 0 15 1 15 18 0 17 -16 180
-17 2143 -17 1863 0 2121 2 2103 15 -16 11 -29 12 -56 5 -26 -8 -46 -6 -78 5
-23 8 -46 12 -51 9 -5 -3 -19 -2 -31 2 l-22 7 23 18 c18 15 21 25 16 49 -6 29
-5 30 29 30 38 0 45 14 26 50 -8 16 -5 19 21 25 18 4 35 3 42 -4 14 -14 27
-14 27 -1 0 6 -6 10 -14 10 -8 0 -16 10 -18 23 -2 12 -13 26 -25 32 -13 5 -23
14 -23 20 0 6 10 19 23 30 l22 20 -21 3 c-28 4 -58 37 -51 56 3 8 18 16 34 18
l28 3 -32 18 c-20 11 -33 25 -33 38 0 11 -10 23 -24 28 -27 11 -67 73 -57 90
6 9 15 9 35 1 40 -15 48 -13 41 10 -7 21 -7 21 29 2 36 -19 37 -19 73 -1 50
25 57 41 33 72 -15 19 -39 30 -92 42 -40 9 -77 20 -83 24 -5 5 -22 11 -37 15
-38 9 -35 30 7 62 26 20 34 31 29 48 -4 16 4 30 34 57 21 19 49 39 62 45 l24
11 -36 36 c-26 26 -42 34 -57 30 -17 -4 -22 0 -27 27 -4 17 -13 34 -20 37 -10
4 -10 12 2 45 12 35 12 43 -2 70 -9 17 -17 60 -18 95 -3 73 -13 90 -45 74 -20
-11 -23 -22 -25 -88 -1 -12 -7 -28 -13 -34 -7 -7 -13 -22 -13 -34 0 -12 -4
-25 -9 -30 -5 -6 -14 -27 -21 -47 -6 -21 -16 -38 -21 -38 -5 0 -9 -7 -9 -15 0
-8 -9 -19 -19 -25 -11 -5 -21 -22 -23 -37 -5 -42 -46 -43 -82 -3 -15 17 -25
38 -22 46 6 16 62 19 68 4 2 -6 9 -6 18 0 12 8 13 13 2 27 -7 10 -17 30 -23
46 -6 15 -18 27 -27 28 -14 0 -14 2 1 8 18 7 18 8 1 21 -16 14 -15 15 17 20
27 4 34 9 32 25 -3 29 17 74 41 90 11 8 16 15 10 15 -6 0 -24 11 -40 25 -16
14 -38 25 -49 26 -22 1 -15 4 29 14 22 4 27 10 23 25 -3 12 0 20 7 20 7 0 24
6 39 13 33 15 33 54 -1 81 -19 15 -21 21 -10 27 19 13 -10 31 -38 24 -13 -3
-27 2 -35 11 -11 14 -8 21 26 53 22 20 46 49 52 64 7 15 19 27 28 27 8 0 15 4
15 10 0 5 7 7 15 4 24 -9 48 22 35 45 -14 27 -13 51 6 86 9 17 29 62 45 100
l27 70 46 5 c53 7 49 4 69 53 15 34 19 37 56 37 46 0 91 18 91 36 0 7 -5 25
-10 39 -10 26 -11 26 -75 20 l-65 -7 6 31 c7 34 -5 41 -26 16 -11 -13 -15 -13
-21 -3 -5 7 -6 20 -3 29 3 11 -5 25 -21 37 -19 15 -31 42 -49 113 -39 153 -82
232 -178 329 -38 38 -68 72 -68 77 0 4 -18 27 -40 51 -22 24 -40 49 -40 56 0
7 -11 30 -25 50 -32 47 -31 52 5 86 33 30 38 66 20 129 -8 27 -6 38 5 51 21
23 19 35 -10 64 -14 14 -25 32 -25 40 0 22 -48 34 -91 22 -28 -7 -41 -6 -53 4
-9 7 -34 14 -56 16 -36 4 -40 2 -40 -20 0 -30 -16 -43 -62 -48 -37 -4 -56 11
-42 33 9 15 34 10 34 -6 0 -8 7 -15 15 -15 10 0 15 10 15 28 0 15 7 36 15 46
20 26 20 85 0 92 -28 11 -15 24 20 20 44 -6 53 9 24 40 -19 20 -20 24 -6 24 9
0 17 6 17 14 0 7 12 21 26 31 l26 17 -31 28 c-17 16 -31 34 -31 40 0 12 31 25
81 33 33 5 36 3 32 -14 -4 -13 0 -19 10 -19 19 0 41 36 33 55 -3 8 15 29 45
51 51 39 64 75 37 102 -10 10 -10 17 0 32 6 11 12 27 12 35 0 26 28 17 52 -17
20 -29 22 -44 24 -158 0 -69 -2 -129 -5 -135 -3 -5 -6 -35 -6 -65 0 -37 -11
-83 -33 -140 -17 -47 -32 -88 -32 -92 0 -5 10 -8 23 -8 21 0 28 12 60 108 19
59 41 134 47 167 7 33 20 95 31 137 22 89 41 322 39 488 -1 100 -4 122 -27
172 l-26 58 -166 -1 -166 0 -55 -41z m290 -364 c0 -8 -5 -12 -10 -9 -6 4 -8
11 -5 16 9 14 15 11 15 -7z m-3556 -348 c-4 -16 -1 -27 10 -33 11 -6 18 -30
23 -77 5 -55 11 -73 31 -91 24 -22 23 -45 -2 -45 -7 0 -21 -9 -31 -20 -18 -19
-17 -21 5 -40 13 -11 26 -20 29 -20 3 0 17 -20 30 -45 13 -25 27 -45 32 -45
23 0 38 -33 35 -78 -4 -43 -6 -47 -28 -44 -34 4 -75 57 -88 113 -7 27 -17 49
-24 49 -11 0 -36 97 -34 132 1 10 -7 36 -17 58 -15 34 -17 45 -7 61 9 14 10
25 2 40 -18 32 5 109 31 109 5 0 7 -11 3 -24z m916 -91 c10 -12 10 -15 -4 -15
-9 0 -16 7 -16 15 0 8 2 15 4 15 2 0 9 -7 16 -15z m1500 -91 c0 -14 -21 -19
-32 -8 -3 3 -4 14 -1 25 4 15 8 17 19 8 8 -6 14 -18 14 -25z m-1215 -41 c-8
-45 -22 -73 -35 -73 -13 0 -13 13 2 47 6 15 10 36 9 46 -1 10 4 17 14 17 14 0
16 -6 10 -37z m333 0 c9 -28 8 -40 -1 -52 -9 -11 -9 -15 1 -18 19 -7 14 -34
-5 -32 -29 2 -39 -1 -26 -9 10 -6 10 -12 -2 -28 -15 -18 -15 -17 -11 14 2 17
0 32 -5 32 -5 0 -9 16 -9 36 0 27 4 35 14 31 17 -7 27 14 19 42 -10 37 13 22
25 -16z m449 5 c-3 -7 -5 -2 -5 12 0 14 2 19 5 13 2 -7 2 -19 0 -25z m542 -5
c13 -10 14 -14 3 -25 -11 -11 -14 -10 -22 2 -5 8 -9 26 -9 40 0 16 3 19 6 10
4 -8 13 -20 22 -27z m-263 12 c4 -10 13 -13 25 -10 20 7 58 -28 59 -52 0 -12
-32 -18 -74 -13 -10 1 -29 -8 -41 -20 -19 -18 -22 -26 -13 -40 14 -22 34 -16
42 13 6 20 7 20 16 5 6 -9 17 -15 25 -12 11 5 15 -1 15 -19 0 -32 16 -43 29
-20 14 26 23 11 29 -46 4 -42 1 -51 -16 -60 -11 -6 -27 -9 -34 -8 -7 2 -9 2
-4 -1 4 -2 3 -8 -4 -12 -7 -5 -21 -3 -31 3 -13 8 -24 8 -43 -1 -23 -10 -26 -9
-26 8 0 21 -15 27 -25 10 -11 -18 -35 -11 -35 10 0 12 7 20 16 20 13 0 15 11
11 68 -3 37 -8 81 -12 98 -6 26 -2 36 25 62 34 35 57 41 66 17z m-806 -15 c0
-5 -4 -10 -10 -10 -5 0 -10 5 -10 10 0 6 5 10 10 10 6 0 10 -4 10 -10z m990 1
c0 -5 -7 -14 -15 -21 -13 -10 -15 -9 -15 9 0 12 6 21 15 21 8 0 15 -4 15 -9z
m-311 -53 c1 -5 -3 -8 -9 -8 -5 0 -10 12 -9 28 0 24 1 25 9 7 5 -11 9 -23 9
-27z m-542 7 c7 -20 -2 -29 -21 -22 -9 4 -13 13 -10 22 8 19 23 19 31 0z
m1580 9 c28 -8 20 -24 -12 -24 -25 0 -39 12 -28 24 8 7 12 7 40 0z m-767 -19
c0 -8 -7 -15 -15 -15 -16 0 -20 12 -8 23 11 12 23 8 23 -8z m-610 -25 c0 -16
-4 -30 -8 -30 -5 0 -7 14 -4 30 2 17 6 30 8 30 2 0 4 -13 4 -30z m151 -10 c5
0 9 -20 9 -44 0 -35 -4 -45 -20 -49 -16 -4 -18 -11 -13 -41 4 -24 2 -36 -6
-36 -6 0 -11 -11 -11 -25 0 -23 -8 -29 -27 -22 -5 1 -7 6 -5 10 1 4 3 16 5 26
2 10 10 26 19 35 10 9 15 23 12 31 -3 7 4 23 15 34 12 12 21 26 21 31 0 20
-31 22 -50 5 -18 -16 -20 -17 -20 -2 0 23 32 56 48 51 8 -2 18 -4 23 -4z
m-1306 -10 c3 -5 1 -10 -4 -10 -6 0 -11 5 -11 10 0 6 2 10 4 10 3 0 8 -4 11
-10z m945 -32 l9 -23 7 23 c7 25 29 29 37 7 4 -8 -4 -22 -16 -32 -14 -11 -21
-26 -19 -38 4 -16 -1 -14 -28 12 -27 27 -30 34 -21 52 15 27 19 26 31 -1z
m502 -8 c3 -3 0 -14 -8 -24 -13 -19 -14 -18 -14 14 0 18 3 29 8 24 4 -5 10
-11 14 -14z m-1539 -51 c4 -15 0 -23 -14 -26 -12 -4 -19 -14 -19 -29 0 -25
-15 -35 -77 -48 -28 -7 -33 -4 -48 24 -15 28 -15 31 2 37 10 4 24 15 31 25 11
15 21 17 49 12 30 -6 35 -4 30 8 -3 9 0 21 6 27 13 13 33 -1 40 -30z m1212 31
c3 -5 2 -17 -3 -26 -8 -14 -10 -14 -25 1 -10 9 -15 21 -12 26 8 12 32 12 40
-1z m-75 -22 c0 -19 -2 -20 -10 -8 -13 19 -13 30 0 30 6 0 10 -10 10 -22z
m150 -24 c0 -14 -3 -14 -15 -4 -8 7 -15 14 -15 16 0 2 7 4 15 4 8 0 15 -7 15
-16z m-703 -41 c-3 -10 -5 -2 -5 17 0 19 2 27 5 18 2 -10 2 -26 0 -35z m1003
32 c0 -8 -4 -23 -9 -33 -5 -9 -12 -25 -15 -36 -5 -15 -9 -16 -22 -6 -10 9 -12
16 -4 24 5 5 10 16 10 23 0 15 21 42 33 43 4 0 7 -7 7 -15z m-487 -10 c-3 -9
-8 -14 -10 -11 -3 3 -2 9 2 15 9 16 15 13 8 -4z m1626 -4 c10 -7 8 -12 -10
-25 -31 -21 -49 -20 -49 2 0 32 28 42 59 23z m-1592 -73 c-3 -7 -5 -2 -5 12 0
14 2 19 5 13 2 -7 2 -19 0 -25z m383 -8 c0 -16 -4 -30 -9 -30 -12 0 -24 37
-16 50 12 20 25 10 25 -20z m-1083 -12 c-3 -8 -6 -5 -6 6 -1 11 2 17 5 13 3
-3 4 -12 1 -19z m1153 12 c0 -5 7 -10 15 -10 17 0 18 -2 9 -25 -6 -14 -8 -14
-25 1 -20 18 -25 44 -9 44 6 0 10 -4 10 -10z m77 4 c-3 -3 -12 -4 -19 -1 -8 3
-5 6 6 6 11 1 17 -2 13 -5z m1091 -22 c4 -23 -12 -28 -37 -13 -12 8 -13 12 -1
26 17 20 34 14 38 -13z m-2888 8 c0 -5 -4 -10 -10 -10 -5 0 -10 5 -10 10 0 6
5 10 10 10 6 0 10 -4 10 -10z m1112 -22 c-9 -9 -12 -7 -12 12 0 19 3 21 12 12
9 -9 9 -15 0 -24z m-455 7 c8 -22 -6 -33 -17 -15 -13 20 -12 30 0 30 6 0 13
-7 17 -15z m1436 0 c-3 -9 -8 -14 -10 -11 -3 3 -2 9 2 15 9 16 15 13 8 -4z
m-418 -5 c3 -5 1 -10 -4 -10 -6 0 -11 5 -11 10 0 6 2 10 4 10 3 0 8 -4 11 -10z
m123 -21 c1 -8 -4 -23 -12 -34 -15 -19 -15 -18 -16 18 0 27 4 37 13 35 6 -3
13 -11 15 -19z m1012 11 c0 -5 -7 -10 -15 -10 -8 0 -15 5 -15 10 0 6 7 10 15
10 8 0 15 -4 15 -10z m-570 -10 c0 -5 -9 -14 -20 -20 -16 -8 -20 -8 -20 4 0 8
8 17 18 19 9 3 18 5 20 6 1 0 2 -3 2 -9z m-1222 -24 c3 -13 -1 -17 -14 -14
-11 2 -20 11 -22 22 -3 13 1 17 14 14 11 -2 20 -11 22 -22z m449 -8 c-3 -8 -6
-5 -6 6 -1 11 2 17 5 13 3 -3 4 -12 1 -19z m147 -10 c-10 -34 -26 -50 -37 -39
-5 5 -2 19 8 35 21 32 39 34 29 4z m233 3 c10 9 13 6 13 -14 0 -14 -5 -29 -10
-32 -6 -4 -8 -10 -6 -14 3 -4 1 -13 -4 -21 -8 -13 -12 -12 -24 5 -9 11 -13 26
-11 33 3 8 5 23 5 35 0 16 3 18 12 9 8 -8 15 -9 25 -1z m-1047 -29 c0 -15 -2
-15 -10 -2 -13 20 -13 33 0 25 6 -3 10 -14 10 -23z m128 6 c19 -19 14 -30 -8
-18 -11 6 -20 15 -20 20 0 14 14 12 28 -2z m-340 -17 c3 -8 -1 -12 -9 -9 -7 2
-15 10 -17 17 -3 8 1 12 9 9 7 -2 15 -10 17 -17z m1185 -1 c3 -11 1 -20 -4
-20 -5 0 -9 9 -9 20 0 11 2 20 4 20 2 0 6 -9 9 -20z m387 10 c0 -5 -2 -10 -4
-10 -3 0 -8 5 -11 10 -3 6 -1 10 4 10 6 0 11 -4 11 -10z m457 4 c-3 -3 -12 -4
-19 -1 -8 3 -5 6 6 6 11 1 17 -2 13 -5z m-1719 -40 c-10 -10 -28 6 -28 24 0
15 1 15 17 -1 9 -9 14 -19 11 -23z m-128 -8 c0 -21 -36 -61 -43 -49 -4 6 0 16
8 23 8 7 15 19 15 26 0 8 5 14 10 14 6 0 10 -6 10 -14z m1492 -29 c-3 -29 7
-34 25 -16 7 7 30 13 53 15 23 2 49 8 59 13 10 6 42 12 72 15 53 6 53 6 24 -9
-16 -8 -46 -14 -65 -15 -19 0 -53 -9 -75 -20 -22 -11 -46 -19 -53 -20 -7 0
-25 -7 -40 -17 -63 -38 -110 -68 -149 -95 -47 -32 -60 -22 -17 11 16 13 21 21
13 22 -8 0 -3 5 10 10 16 6 21 14 17 25 -5 13 -1 15 18 10 23 -6 53 14 40 27
-3 3 3 12 15 19 30 18 26 31 -6 24 -16 -3 -22 -3 -15 0 6 3 12 11 12 17 0 7
14 12 33 12 29 0 32 -3 29 -28z m-282 3 c0 -5 -5 -10 -11 -10 -5 0 -7 5 -4 10
3 6 8 10 11 10 2 0 4 -4 4 -10z m-115 -30 c3 -5 1 -10 -4 -10 -6 0 -11 5 -11
10 0 6 2 10 4 10 3 0 8 -4 11 -10z m270 0 c3 -5 -3 -10 -15 -10 -12 0 -18 5
-15 10 3 6 10 10 15 10 5 0 12 -4 15 -10z m-692 -79 c40 -21 33 -29 -18 -23
-30 3 -45 1 -45 -7 0 -6 -9 -11 -20 -11 -11 0 -20 5 -20 10 0 11 61 52 70 47
3 -1 17 -9 33 -16z m-1200 -7 c61 -11 47 -34 -20 -34 -32 0 -88 -3 -125 -7
-59 -5 -68 -4 -68 10 0 10 11 19 28 23 15 3 32 7 37 9 18 6 109 5 148 -1z
m1297 -54 c0 -5 -9 -10 -20 -10 -11 0 -20 5 -20 10 0 6 9 10 20 10 11 0 20 -4
20 -10z m-779 -27 c13 -16 12 -17 -3 -4 -10 7 -18 15 -18 17 0 8 8 3 21 -13z
m1299 3 c0 -3 -4 -8 -10 -11 -5 -3 -10 -1 -10 4 0 6 5 11 10 11 6 0 10 -2 10
-4z m-1030 -25 c0 -5 -9 -11 -20 -14 -22 -6 -26 3 -8 21 11 11 28 7 28 -7z
m635 -1 c3 -5 -1 -10 -10 -10 -9 0 -13 5 -10 10 3 6 8 10 10 10 2 0 7 -4 10
-10z m80 -10 c3 -5 -1 -10 -10 -10 -9 0 -13 5 -10 10 3 6 8 10 10 10 2 0 7 -4
10 -10z m89 4 c9 -3 16 -13 16 -22 0 -8 8 -25 18 -36 17 -20 16 -20 -3 -6 -11
8 -25 21 -31 29 -6 8 -16 11 -21 8 -6 -4 -13 2 -16 13 -5 21 7 25 37 14z m139
-61 c-17 -21 -35 -47 -42 -58 -11 -18 -11 -18 -5 5 6 23 16 39 54 80 28 31 23
11 -7 -27z m-1072 -15 c18 -22 20 -22 33 -5 13 16 14 16 20 -9 4 -14 4 -34 1
-43 -3 -10 1 -24 10 -31 8 -7 15 -21 15 -31 0 -10 5 -21 10 -24 6 -4 8 -11 5
-16 -4 -5 -1 -9 4 -9 6 0 10 -10 9 -22 -1 -13 2 -38 6 -55 5 -21 4 -33 -3 -33
-5 0 -12 -10 -14 -22 -3 -14 -5 -7 -6 17 -1 22 -10 58 -21 80 -11 22 -19 48
-20 57 0 17 -54 124 -71 143 -10 10 -12 25 -3 25 3 0 14 -10 25 -22z m994 -48
c3 -5 1 -10 -4 -10 -6 0 -11 5 -11 10 0 6 2 10 4 10 3 0 8 -4 11 -10z m-588
-22 c-3 -8 -6 -5 -6 6 -1 11 2 17 5 13 3 -3 4 -12 1 -19z m558 -8 c3 -5 1 -10
-4 -10 -6 0 -11 5 -11 10 0 6 2 10 4 10 3 0 8 -4 11 -10z m462 -26 c8 -22 -22
-44 -59 -44 -33 0 -46 23 -28 45 17 21 79 20 87 -1z m-437 -15 c0 -6 -11 -25
-25 -43 -14 -18 -25 -38 -25 -43 0 -6 -7 -16 -15 -23 -12 -10 -15 -9 -15 7 0
11 -9 32 -20 46 -11 14 -19 36 -19 49 1 18 2 19 6 5 4 -17 6 -17 23 -2 17 16
19 15 31 -6 l12 -23 14 28 c13 25 33 28 33 5z m550 6 c0 -8 -9 -15 -20 -15
-20 0 -26 11 -13 23 12 13 33 7 33 -8z m-2940 -5 c0 -5 -5 -10 -11 -10 -5 0
-7 5 -4 10 3 6 8 10 11 10 2 0 4 -4 4 -10z m1927 -22 c-3 -8 -6 -5 -6 6 -1 11
2 17 5 13 3 -3 4 -12 1 -19z m-1232 -13 c0 -14 -9 -21 -30 -25 -46 -9 -66 -1
-55 20 18 33 85 36 85 5z m121 4 c8 -14 -18 -31 -30 -19 -9 9 0 30 14 30 5 0
12 -5 16 -11z m-855 -62 c-8 -8 -11 -7 -11 4 0 20 13 34 18 19 3 -7 -1 -17 -7
-23z m2311 20 c13 -11 16 -30 14 -111 -2 -96 -3 -99 -29 -113 -25 -13 -27 -12
-27 7 0 12 -4 19 -10 15 -5 -3 -7 -12 -3 -20 6 -18 2 -19 -30 -2 -24 13 -24
14 -9 51 11 29 19 36 33 33 31 -8 23 26 -11 52 -17 12 -28 26 -25 32 4 5 11 7
16 4 5 -4 9 4 9 16 0 16 5 20 20 16 15 -4 20 0 20 14 0 22 8 23 32 6z m115
-19 c-3 -8 -6 -5 -6 6 -1 11 2 17 5 13 3 -3 4 -12 1 -19z m1032 3 c21 -13 5
-41 -23 -41 -24 0 -41 23 -30 41 7 11 35 11 53 0z m-1534 -31 c3 -5 2 -10 -4
-10 -5 0 -13 5 -16 10 -3 6 -2 10 4 10 5 0 13 -4 16 -10z m-1627 -12 c-6 -18
-28 -21 -28 -4 0 9 7 16 16 16 9 0 14 -5 12 -12z m990 -10 c3 -13 -3 -18 -22
-18 -14 0 -26 2 -26 4 0 2 -3 12 -6 21 -6 13 -1 16 22 13 18 -2 30 -10 32 -20z
m577 12 c-3 -5 -10 -10 -16 -10 -5 0 -9 5 -9 10 0 6 7 10 16 10 8 0 12 -4 9
-10z m-1895 -77 c-10 -16 -11 -15 -6 7 3 14 7 36 7 50 2 19 3 18 6 -7 2 -18
-1 -41 -7 -50z m2033 57 c-3 -11 -9 -23 -14 -26 -9 -5 17 -53 36 -66 7 -5 7
-8 0 -8 -6 0 -21 7 -33 16 -13 9 -26 13 -30 9 -4 -3 1 -11 12 -17 10 -5 25
-19 34 -29 21 -24 32 -24 32 0 0 20 23 45 33 35 11 -11 42 31 39 54 -4 25 1
27 29 12 13 -7 19 -7 19 0 0 5 7 10 15 10 8 0 15 -4 15 -9 0 -5 -7 -11 -15
-15 -8 -3 -15 -17 -15 -30 0 -14 -7 -29 -16 -34 -13 -7 -13 -13 -3 -35 9 -20
10 -39 2 -72 -6 -26 -7 -48 -2 -51 9 -5 -18 -63 -34 -75 -5 -3 -5 -18 -1 -32
4 -19 13 -27 27 -27 14 0 18 -3 11 -10 -7 -7 -2 -29 18 -70 15 -33 28 -64 28
-70 0 -5 9 -24 20 -42 11 -18 20 -39 20 -45 0 -20 -25 -15 -45 7 -10 11 -20
18 -23 15 -2 -2 -21 3 -40 11 -20 8 -42 12 -50 9 -7 -3 -23 2 -35 10 -12 9
-25 11 -31 6 -7 -6 -26 -4 -48 4 -32 11 -38 10 -38 -1 0 -15 -16 -19 -24 -6
-3 5 -29 5 -58 2 -32 -5 -56 -3 -59 3 -4 5 -10 0 -14 -12 -6 -21 -35 -30 -35
-11 0 6 6 10 14 10 20 0 32 40 15 51 -21 13 -32 11 -26 -6 9 -21 -7 -26 -43
-14 -17 7 -28 14 -22 18 5 3 10 20 10 36 2 68 13 104 36 107 11 2 20 9 19 15
-2 9 7 11 28 6 30 -6 30 -5 18 16 -8 11 -22 21 -32 21 -10 0 -15 5 -12 10 3 6
-1 13 -10 16 -9 4 -14 12 -11 20 3 7 1 14 -3 16 -5 2 -11 20 -15 41 -5 29 -4
37 7 37 13 0 33 43 29 62 -3 15 74 -6 92 -25 l20 -20 8 29 c4 16 10 44 13 63
9 54 17 82 23 77 3 -3 10 -1 17 4 7 6 23 5 44 -3 28 -10 34 -10 42 6 13 23 18
22 12 -3z m92 0 c3 -5 -1 -10 -9 -10 -9 0 -16 -4 -16 -10 0 -5 -4 -10 -10 -10
-14 0 -12 27 3 33 19 8 25 8 32 -3z m302 -22 c-3 -8 -6 -5 -6 6 -1 11 2 17 5
13 3 -3 4 -12 1 -19z m-302 -28 c3 -5 2 -10 -4 -10 -5 0 -13 5 -16 10 -3 6 -2
10 4 10 5 0 13 -4 16 -10z m292 -32 c-3 -8 -6 -5 -6 6 -1 11 2 17 5 13 3 -3 4
-12 1 -19z m-747 -50 c0 -4 -7 -8 -15 -8 -10 0 -15 10 -15 28 1 26 1 26 15 8
8 -11 15 -23 15 -28z m-43 26 c-3 -3 -12 -4 -19 -1 -8 3 -5 6 6 6 11 1 17 -2
13 -5z m173 -4 c0 -5 -4 -10 -10 -10 -5 0 -10 5 -10 10 0 6 5 10 10 10 6 0 10
-4 10 -10z m-140 -90 c9 -16 8 -20 -5 -20 -8 0 -15 9 -15 20 0 11 2 20 5 20 2
0 9 -9 15 -20z m2363 -30 c-6 -22 -18 -26 -28 -10 -8 13 3 30 20 30 8 0 11 -7
8 -20z m-76 -212 c-3 -8 -6 -5 -6 6 -1 11 2 17 5 13 3 -3 4 -12 1 -19z m-1520
-30 c-3 -8 -6 -5 -6 6 -1 11 2 17 5 13 3 -3 4 -12 1 -19z m32 -68 c0 -9 -4 -8
-9 5 -5 11 -9 27 -9 35 0 9 4 8 9 -5 5 -11 9 -27 9 -35z m-972 -2 c-3 -8 -6
-5 -6 6 -1 11 2 17 5 13 3 -3 4 -12 1 -19z m233 -27 c0 -5 -8 -11 -18 -13 -11
-3 -19 0 -19 8 0 8 9 14 19 14 10 0 18 -4 18 -9z m779 -47 c17 -38 6 -41 -12
-5 -9 17 -12 31 -8 31 4 0 13 -12 20 -26z m-806 9 c-7 -2 -19 -2 -25 0 -7 3
-2 5 12 5 14 0 19 -2 13 -5z m2168 -40 c-12 -20 -14 -14 -5 12 4 9 9 14 11 11
3 -2 0 -13 -6 -23z m-2226 -63 c-15 -17 -15 -21 -1 -47 38 -68 59 -93 75 -93
6 0 11 -7 11 -16 0 -11 5 -14 16 -10 11 4 18 -1 21 -15 3 -11 11 -18 17 -16
16 6 84 -45 79 -59 -2 -6 8 -16 21 -23 28 -15 38 -41 24 -64 -6 -12 -2 -20 22
-32 32 -16 40 -35 15 -35 -8 0 -15 -6 -16 -12 0 -10 -2 -10 -6 0 -2 6 -9 10
-13 7 -5 -3 -11 -1 -15 5 -3 5 -1 10 6 10 8 0 7 5 -3 18 -9 9 -18 24 -21 32
-5 13 -6 12 -6 -1 -1 -19 -42 -33 -52 -18 -3 6 -9 1 -12 -10 -3 -13 -13 -21
-26 -21 -12 0 -21 -6 -21 -15 0 -9 -9 -15 -24 -15 -25 0 -43 -16 -31 -28 3 -3
10 0 15 8 8 12 10 10 10 -7 0 -30 10 -29 36 4 l21 27 23 -22 c13 -12 27 -19
32 -16 4 3 8 1 8 -4 0 -15 -56 -35 -78 -28 -20 7 -39 -22 -40 -62 -1 -21 1
-21 21 -7 12 8 26 15 31 15 21 0 -36 -32 -62 -35 -15 -1 -31 -11 -37 -21 -19
-33 -58 -64 -81 -64 -25 0 -45 -21 -26 -28 16 -5 15 -22 -1 -22 -19 0 -40 47
-24 54 7 2 0 5 -15 5 -15 1 -40 -10 -56 -24 -16 -13 -33 -21 -37 -17 -4 4 -5
-2 -3 -13 2 -15 -5 -22 -29 -30 -18 -5 -33 -13 -33 -17 0 -4 -7 -8 -15 -8 -23
0 -18 30 11 56 14 13 28 24 32 24 4 0 16 7 26 15 16 12 17 17 6 30 -8 10 -9
15 -1 15 6 0 11 -4 11 -10 0 -5 5 -10 10 -10 15 0 12 48 -2 53 -7 2 6 5 30 5
23 0 40 -3 37 -7 -4 -8 26 -21 51 -21 7 0 12 17 11 45 0 42 -3 45 -27 45 -14
0 -34 -6 -45 -14 -11 -7 -33 -16 -50 -19 -46 -8 -104 -32 -123 -50 -15 -16
-15 -17 8 -17 19 0 21 -3 12 -12 -10 -10 -17 -10 -32 0 -15 9 -26 10 -41 1
-11 -6 -27 -8 -36 -5 -8 3 -24 -1 -36 -9 -24 -17 -54 -20 -59 -5 -4 12 -77
-12 -88 -30 -4 -7 -13 -9 -19 -6 -6 4 -9 12 -6 17 9 14 -19 11 -41 -6 -25 -19
-54 -19 -54 0 0 8 6 15 14 15 7 0 19 7 26 15 9 10 17 12 23 6 14 -14 37 -2 48
26 5 13 17 26 26 30 10 4 22 12 26 20 4 7 13 13 19 13 7 0 6 -5 -2 -15 -11
-13 -8 -16 19 -21 34 -7 38 -13 19 -32 -9 -9 -6 -12 16 -12 23 0 27 4 23 19
-3 14 2 21 17 25 11 4 36 26 55 50 35 45 119 101 107 71 -18 -45 -15 -46 28
-4 25 25 66 54 90 63 68 26 75 65 11 61 -36 -2 -63 -15 -32 -15 10 0 17 -7 17
-16 0 -12 -7 -14 -32 -8 -53 11 -81 7 -128 -20 -25 -14 -57 -26 -72 -26 -15 0
-30 -5 -34 -11 -3 -6 -17 -8 -31 -5 -15 4 -29 1 -40 -9 -8 -9 -18 -13 -21 -10
-3 3 4 14 16 25 12 12 22 26 22 32 0 5 8 8 18 6 20 -6 42 14 42 37 0 8 5 15
10 15 6 0 10 -4 10 -10 0 -5 14 -1 30 8 17 9 28 23 25 29 -2 7 4 17 15 23 24
13 26 13 44 -6 20 -19 36 -10 29 16 -4 15 0 20 14 20 37 0 58 42 28 54 -16 6
-52 -10 -70 -31 -5 -7 -23 -15 -40 -18 -29 -6 -29 -6 -11 9 11 9 25 16 31 16
6 0 22 11 35 25 13 14 34 25 48 25 18 0 23 4 18 17 -6 16 9 33 29 33 6 -1 1
-7 -9 -15 -22 -16 -22 -16 12 -20 16 -2 21 2 18 11 -3 8 1 14 9 14 9 0 15 10
15 24 0 14 7 32 16 41 31 30 64 86 64 105 0 13 7 20 20 20 14 0 20 7 21 23 2
17 3 16 6 -6 3 -18 -2 -36 -12 -47z m-239 22 c-22 -22 -29 -10 -8 16 9 12 19
16 21 11 2 -6 -4 -18 -13 -27z m1143 -2 c11 -24 11 -24 -3 -6 -9 11 -16 24
-16 30 0 12 5 7 19 -24z m1302 3 c-17 -32 -71 -96 -94 -111 -17 -11 -15 -8 5
12 15 14 41 46 58 71 31 45 49 61 31 28z m-2478 -48 c-10 -13 -25 -25 -33 -25
-10 0 -7 8 10 24 33 32 46 33 23 1z m-1078 -85 c41 -27 76 -50 79 -50 2 0 24
-11 47 -25 36 -21 39 -24 16 -19 -31 7 -93 37 -142 69 -36 23 -125 109 -125
121 0 5 11 -3 25 -19 14 -15 59 -49 100 -77z m2086 57 c-15 -15 -14 -27 4 -27
8 0 15 -4 15 -10 0 -5 -7 -10 -15 -10 -8 0 -15 -5 -15 -11 0 -6 12 -9 28 -7
23 3 27 0 24 -19 -3 -20 1 -23 27 -23 20 0 32 -6 36 -19 3 -10 16 -22 28 -25
12 -3 64 -46 115 -96 51 -49 99 -90 107 -90 8 0 15 -4 15 -10 0 -16 -27 -12
-45 7 -10 9 -24 17 -34 18 -9 1 -24 6 -34 10 -12 5 -28 1 -47 -14 -16 -11 -34
-21 -40 -21 -13 0 -13 -11 1 -30 9 -13 11 -13 21 1 10 15 15 15 47 1 87 -36
117 -35 61 3 -16 11 -30 23 -30 28 0 13 17 7 35 -13 10 -11 23 -20 28 -20 5 0
19 -9 31 -20 51 -50 81 -70 103 -70 13 0 26 -7 29 -15 4 -8 16 -15 29 -15 13
0 33 -11 46 -24 19 -20 30 -23 71 -19 46 4 48 3 48 -23 0 -22 -3 -25 -24 -20
-12 3 -26 2 -30 -1 -11 -12 -79 -2 -91 12 -5 7 -23 16 -38 19 -15 4 -26 10
-23 14 3 5 -3 13 -12 19 -19 12 -62 0 -62 -17 0 -6 -4 -9 -9 -5 -5 3 -12 2
-15 -3 -10 -17 -77 0 -92 24 -14 20 -48 40 -64 37 -3 0 -19 -4 -37 -7 -25 -6
-35 -3 -52 15 -41 44 -20 9 24 -41 25 -28 45 -56 45 -64 0 -7 12 -23 27 -37
15 -13 21 -16 14 -6 -17 21 -3 22 27 1 16 -11 27 -13 35 -6 9 8 12 4 13 -14 1
-13 -2 -22 -6 -19 -5 3 -10 -1 -12 -9 -2 -12 -21 -6 -83 24 -61 30 -89 39
-118 36 -23 -3 -42 1 -51 10 -8 8 -19 14 -25 14 -5 0 -14 8 -20 18 -8 14 -12
15 -22 5 -11 -11 -16 -3 -26 39 -10 36 -10 53 -3 58 17 10 -35 40 -69 40 -24
0 -28 -3 -24 -20 3 -11 9 -20 14 -20 5 0 9 -7 9 -16 0 -12 6 -15 24 -10 19 5
26 1 31 -15 4 -11 4 -23 1 -26 -3 -4 -1 -12 5 -19 9 -10 7 -15 -5 -20 -20 -8
-76 44 -69 63 3 7 0 13 -6 13 -6 0 -11 7 -11 15 0 8 -5 14 -11 13 -6 -2 -16 5
-22 15 -9 14 -9 19 1 26 8 4 14 12 14 17 1 26 11 33 29 23 15 -7 19 -6 19 4 0
22 -49 50 -92 52 -24 1 -44 9 -52 21 -12 16 -16 17 -31 4 -16 -14 -17 -12 -11
20 5 26 4 31 -3 20 -9 -13 -11 -13 -11 2 0 30 12 48 32 48 15 0 18 5 13 19 -4
14 0 21 15 26 11 3 20 12 20 20 0 7 20 21 45 31 25 9 45 23 45 31 0 8 8 13 17
11 10 -2 19 5 22 20 3 12 17 28 30 35 13 7 23 15 22 20 -4 18 24 35 43 25 13
-7 15 -13 7 -21z m295 -74 c-4 -5 -54 43 -81 77 -11 14 4 3 33 -24 28 -28 50
-51 48 -53z m-1356 63 c0 -3 -4 -8 -10 -11 -5 -3 -10 -1 -10 4 0 6 5 11 10 11
6 0 10 -2 10 -4z m1426 -114 c-6 -6 -56 29 -56 39 0 5 13 0 30 -12 16 -13 28
-24 26 -27z m-1576 13 c-14 -8 -29 -14 -35 -14 -5 0 1 6 15 14 14 8 30 14 35
14 6 0 -1 -6 -15 -14z m1380 -25 c0 -5 -7 -10 -15 -10 -8 0 -15 5 -15 10 0 6
7 10 15 10 8 0 15 -4 15 -10z m-1433 -6 c-3 -3 -12 -4 -19 -1 -8 3 -5 6 6 6
11 1 17 -2 13 -5z m1698 -15 c15 -14 -7 -10 -35 7 l-25 15 25 -7 c14 -3 29
-10 35 -15z m778 -4 c-67 -47 -219 -91 -340 -99 -92 -6 -84 -4 62 20 108 17
218 51 259 79 11 8 25 15 30 15 6 0 1 -7 -11 -15z m106 -16 c-19 -12 -24 -2
-8 17 9 11 14 13 17 4 3 -7 -2 -16 -9 -21z m-824 -9 c13 -6 15 -9 5 -9 -8 0
-22 4 -30 9 -18 12 -2 12 25 0z m892 0 c12 0 12 -2 -2 -16 -12 -13 -19 -14
-30 -4 -20 16 -19 34 1 26 9 -3 22 -6 31 -6z m-744 -47 c-7 -2 -21 -2 -30 0
-10 3 -4 5 12 5 17 0 24 -2 18 -5z m-1073 -67 c0 -3 -4 -8 -10 -11 -5 -3 -10
-1 -10 4 0 6 5 11 10 11 6 0 10 -2 10 -4z m224 -62 c18 -7 22 -34 4 -34 -6 0
-8 3 -5 7 4 3 -1 12 -11 19 -18 14 -13 18 12 8z m-78 -19 c9 -8 11 -15 6 -15
-5 0 -15 7 -22 15 -7 8 -9 15 -6 15 4 0 14 -7 22 -15z m-900 -60 c-21 -16 -32
-13 -21 4 3 6 14 11 23 11 15 -1 15 -2 -2 -15z m-779 -21 c-3 -3 -12 -4 -19
-1 -8 3 -5 6 6 6 11 1 17 -2 13 -5z m-97 -23 c0 -9 -24 -21 -41 -21 -16 0 -10
18 9 23 28 8 32 7 32 -2z m885 -21 c3 -5 1 -10 -4 -10 -6 0 -11 5 -11 10 0 6
2 10 4 10 3 0 8 -4 11 -10z m-273 -50 c-23 -22 -42 -26 -42 -10 0 6 10 15 23
20 36 14 42 11 19 -10z m125 14 c-3 -3 -12 -4 -19 -1 -8 3 -5 6 6 6 11 1 17
-2 13 -5z m2643 -24 c0 -5 -7 -10 -15 -10 -8 0 -15 5 -15 10 0 6 7 10 15 10 8
0 15 -4 15 -10z m-1935 -20 c3 -5 2 -10 -4 -10 -5 0 -13 5 -16 10 -3 6 -2 10
4 10 5 0 13 -4 16 -10z m-75 -30 c0 -5 -7 -10 -16 -10 -8 0 -12 5 -9 10 3 6
10 10 16 10 5 0 9 -4 9 -10z m663 -5 c1 -5 -6 -11 -15 -13 -11 -2 -18 3 -18
13 0 17 30 18 33 0z m938 -11 c6 -8 18 -14 26 -14 17 0 99 -41 149 -75 56 -38
16 -30 -72 14 -44 22 -91 44 -106 50 -15 5 -31 19 -37 30 -9 16 -8 18 9 14 11
-3 25 -11 31 -19z m-851 -4 c0 -5 -4 -10 -10 -10 -5 0 -10 5 -10 10 0 6 5 10
10 10 6 0 10 -4 10 -10z m365 0 c3 -5 -1 -10 -9 -10 -9 0 -16 5 -16 10 0 6 4
10 9 10 6 0 13 -4 16 -10z m-2000 -40 c-22 -11 -46 -19 -53 -20 -8 0 -26 -6
-40 -14 -47 -25 -165 -73 -232 -96 -36 -12 -71 -26 -77 -32 -7 -6 -13 -6 -13
-1 0 10 76 46 185 89 39 14 84 33 100 40 98 45 216 76 130 34z m1660 14 c13
-5 14 -8 3 -15 -19 -13 -28 -11 -28 6 0 17 2 18 25 9z m325 -24 c12 -8 12 -10
-5 -10 -11 0 -27 5 -35 10 -12 8 -12 10 5 10 11 0 27 -5 35 -10z m97 -7 c6
-18 -35 -26 -52 -10 -8 8 -11 18 -7 21 10 11 55 2 59 -11z m-1387 -18 c0 -8
-13 -21 -30 -30 -27 -14 -30 -14 -30 0 0 8 6 15 14 15 7 0 19 7 26 15 16 19
20 19 20 0z m40 -5 c-6 -11 -12 -20 -14 -20 -2 0 -2 9 1 20 3 11 9 20 15 20 5
0 4 -9 -2 -20z m-563 -16 c-3 -3 -12 -4 -19 -1 -8 3 -5 6 6 6 11 1 17 -2 13
-5z m244 -19 c0 -6 -10 -12 -23 -13 -19 -4 -20 -2 -9 12 15 17 33 18 32 1z
m2799 6 c0 -12 -20 -25 -27 -18 -7 7 6 27 18 27 5 0 9 -4 9 -9z m-366 -17 c3
-8 2 -12 -4 -9 -6 3 -10 10 -10 16 0 14 7 11 14 -7z m-2754 1 c0 -10 -81 -45
-104 -45 -14 0 -49 -9 -78 -20 -57 -21 -82 -25 -74 -11 3 4 27 14 53 21 27 7
54 17 61 23 6 5 12 6 12 3 0 -4 6 -4 13 1 24 15 117 38 117 28z m2338 -34 c87
-50 112 -66 112 -73 0 -11 -28 -10 -35 1 -3 6 -18 16 -33 24 -56 29 -127 70
-137 79 -19 17 45 -4 93 -31z m315 27 c12 -7 29 -18 37 -24 8 -7 30 -15 48
-19 17 -3 32 -12 32 -18 0 -6 12 -24 28 -40 22 -25 23 -29 7 -22 -11 4 -40 11
-64 15 -43 7 -65 25 -57 47 3 6 -13 23 -35 37 -21 15 -39 28 -39 31 0 9 20 5
43 -7z m-3221 -104 c-30 -14 -56 -23 -59 -21 -7 8 69 46 92 46 11 1 -4 -11
-33 -25z m-492 -174 c0 -5 -4 -10 -10 -10 -5 0 -10 5 -10 10 0 6 5 10 10 10 6
0 10 -4 10 -10z m-20 -440 c24 -15 7 -18 -20 -3 -14 7 -18 13 -10 13 8 0 22
-4 30 -10z"/>
<path d="M2700 3596 c0 -9 7 -16 16 -16 9 0 14 5 12 12 -6 18 -28 21 -28 4z"/>
<path d="M2730 2640 c0 -13 5 -20 13 -17 6 2 12 10 12 17 0 7 -6 15 -12 18 -8
2 -13 -5 -13 -18z"/>
<path d="M2288 2519 c-10 -5 -18 -17 -18 -24 0 -17 27 -20 49 -6 8 5 11 16 8
25 -7 18 -15 19 -39 5z"/>
<path d="M2482 2409 c2 -7 10 -15 17 -17 8 -3 12 1 9 9 -2 7 -10 15 -17 17 -8
3 -12 -1 -9 -9z"/>
<path d="M2167 2283 c-12 -11 -8 -23 7 -23 8 0 16 -5 18 -11 4 -12 38 -1 38
12 0 5 -9 9 -20 9 -11 0 -20 5 -20 10 0 11 -13 13 -23 3z"/>
<path d="M2293 2278 c2 -7 11 -12 21 -10 10 2 16 -4 16 -17 0 -18 3 -19 33 -8
27 10 29 12 10 15 -12 2 -27 10 -33 18 -15 17 -53 19 -47 2z"/>
<path d="M2376 2225 c-3 -8 -1 -15 4 -15 6 0 10 7 10 15 0 8 -2 15 -4 15 -2 0
-6 -7 -10 -15z"/>
<path d="M2200 2220 c0 -5 4 -10 9 -10 6 0 13 5 16 10 3 6 -1 10 -9 10 -9 0
-16 -4 -16 -10z"/>
<path d="M1952 1683 c-12 -2 -20 -8 -17 -12 6 -11 55 -1 55 10 0 5 -3 8 -7 8
-5 -1 -18 -4 -31 -6z"/>
<path d="M1980 1640 c-8 -5 -24 -8 -35 -6 -11 2 -14 1 -7 -1 17 -6 15 -33 -3
-33 -8 0 -15 -7 -15 -16 0 -12 -6 -15 -24 -10 -17 4 -26 1 -30 -11 -9 -24 -1
-26 38 -12 40 14 55 7 36 -16 -7 -9 -8 -15 -2 -15 6 0 18 14 26 32 13 25 14
33 4 40 -8 5 1 6 22 3 29 -5 37 -2 48 15 7 12 10 25 7 28 -4 4 -11 -1 -16 -11
-13 -23 -27 -22 -31 3 -2 14 -7 17 -18 10z"/>
<path d="M1837 1633 c-4 -3 -7 -11 -7 -17 0 -6 5 -5 12 2 6 6 9 14 7 17 -3 3
-9 2 -12 -2z"/>
<path d="M1895 1610 c-3 -5 -1 -10 4 -10 6 0 11 5 11 10 0 6 -2 10 -4 10 -3 0
-8 -4 -11 -10z"/>
<path d="M1838 1593 c7 -3 16 -2 19 1 4 3 -2 6 -13 5 -11 0 -14 -3 -6 -6z"/>
<path d="M1826 1544 c-5 -14 -4 -15 9 -4 17 14 19 20 6 20 -5 0 -12 -7 -15
-16z"/>
<path d="M1997 1553 c-12 -11 -8 -23 8 -23 8 0 15 7 15 15 0 16 -12 20 -23 8z"/>
<path d="M2030 1532 c0 -7 -7 -12 -15 -12 -8 0 -15 -7 -15 -15 0 -19 17 -19
37 1 12 11 13 18 4 27 -8 8 -11 8 -11 -1z"/>
<path d="M2060 1505 c0 -8 4 -15 10 -15 5 0 7 7 4 15 -4 8 -8 15 -10 15 -2 0
-4 -7 -4 -15z"/>
<path d="M1986 1423 c-6 -14 -5 -15 5 -6 7 7 10 15 7 18 -3 3 -9 -2 -12 -12z"/>
<path d="M1950 1399 c0 -5 5 -7 10 -4 6 3 10 8 10 11 0 2 -4 4 -10 4 -5 0 -10
-5 -10 -11z"/>
<path d="M1976 1385 c-3 -8 -1 -15 4 -15 6 0 10 7 10 15 0 8 -2 15 -4 15 -2 0
-6 -7 -10 -15z"/>
<path d="M1790 1369 c0 -5 5 -7 10 -4 6 3 10 8 10 11 0 2 -4 4 -10 4 -5 0 -10
-5 -10 -11z"/>
<path d="M1865 1349 c-4 -6 -5 -12 -2 -15 2 -3 7 2 10 11 7 17 1 20 -8 4z"/>
<path d="M1957 1329 c3 -21 0 -40 -6 -43 -16 -11 -13 -29 4 -23 8 4 17 2 20
-3 5 -9 65 50 65 64 0 3 -8 5 -17 4 -41 -3 -62 3 -67 20 -2 9 -2 1 1 -19z"/>
<path d="M1662 1310 c-6 -11 -12 -22 -12 -25 0 -11 20 6 30 26 14 25 -2 25
-18 -1z"/>
<path d="M1800 1300 c0 -5 5 -10 11 -10 5 0 7 5 4 10 -3 6 -8 10 -11 10 -2 0
-4 -4 -4 -10z"/>
<path d="M1590 1224 c0 -20 42 -15 47 6 4 13 3 13 -6 0 -7 -10 -11 -11 -11 -2
0 6 -7 12 -15 12 -8 0 -15 -7 -15 -16z"/>
<path d="M1937 1203 c-10 -9 -9 -23 2 -23 5 0 11 7 15 15 5 15 -5 20 -17 8z"/>
<path d="M2685 1699 c-4 -6 -5 -12 -2 -15 2 -3 7 2 10 11 7 17 1 20 -8 4z"/>
<path d="M2650 1670 c0 -5 5 -10 10 -10 6 0 10 5 10 10 0 6 -4 10 -10 10 -5 0
-10 -4 -10 -10z"/>
<path d="M2697 1643 c-11 -10 -8 -20 8 -27 10 -4 15 1 15 14 0 20 -11 26 -23
13z"/>
<path d="M2627 1634 c-8 -8 1 -24 14 -24 5 0 9 7 9 15 0 15 -12 20 -23 9z"/>
<path d="M2740 1619 c0 -21 26 -37 44 -27 16 9 15 11 -9 24 -33 17 -35 17 -35
3z"/>
<path d="M2650 1585 c0 -9 8 -18 18 -22 9 -3 25 -15 34 -27 9 -11 20 -18 23
-14 7 6 -58 78 -70 78 -3 0 -5 -7 -5 -15z"/>
<path d="M2865 1590 c3 -5 8 -10 11 -10 2 0 4 5 4 10 0 6 -5 10 -11 10 -5 0
-7 -4 -4 -10z"/>
<path d="M2720 1577 c0 -19 16 -31 24 -18 3 5 -1 14 -9 21 -12 10 -15 10 -15
-3z"/>
<path d="M2800 1575 c0 -8 7 -15 16 -15 14 0 14 3 4 15 -7 8 -14 15 -16 15 -2
0 -4 -7 -4 -15z"/>
<path d="M2640 1546 c0 -8 4 -17 9 -20 5 -4 7 3 4 14 -6 23 -13 26 -13 6z"/>
<path d="M2875 1550 c3 -5 8 -10 11 -10 2 0 4 5 4 10 0 6 -5 10 -11 10 -5 0
-7 -4 -4 -10z"/>
<path d="M2460 1515 c0 -14 37 -35 61 -35 17 0 -1 19 -32 35 -26 14 -29 14
-29 0z"/>
<path d="M2795 1500 c-8 -13 12 -40 31 -40 19 0 11 44 -9 48 -8 2 -18 -2 -22
-8z"/>
<path d="M2846 1493 c-7 -7 13 -33 25 -33 5 0 9 6 9 14 0 15 -24 28 -34 19z"/>
<path d="M2810 1380 c0 -5 5 -10 10 -10 6 0 10 5 10 10 0 6 -4 10 -10 10 -5 0
-10 -4 -10 -10z"/>
<path d="M3010 1366 c0 -2 7 -7 16 -10 8 -3 12 -2 9 4 -6 10 -25 14 -25 6z"/>
<path d="M2730 1302 c0 -12 6 -24 13 -29 13 -8 107 -32 107 -27 0 15 -63 65
-88 70 -28 6 -32 4 -32 -14z"/>
<path d="M3035 1279 c8 -12 56 -32 62 -25 5 4 -50 36 -62 36 -3 0 -3 -5 0 -11z"/>
<path d="M2774 1228 c-5 -7 -3 -8 6 -3 7 4 16 2 21 -6 7 -11 9 -10 9 4 0 19
-25 23 -36 5z"/>
<path d="M2623 3851 c14 -52 4 -61 -26 -26 -13 16 -29 25 -34 22 -15 -9 -4
-46 17 -60 10 -6 16 -16 13 -23 -2 -6 0 -15 6 -19 6 -3 11 -14 11 -25 0 -10 6
-20 14 -23 10 -4 12 4 8 39 -4 36 -1 48 14 58 15 12 17 20 9 52 -6 23 -17 40
-26 42 -14 3 -15 -2 -6 -37z"/>
<path d="M2316 3823 c-3 -3 -6 -25 -6 -47 1 -38 2 -40 15 -22 23 31 15 93 -9
69z"/>
<path d="M2252 3807 c-19 -22 -25 -66 -12 -82 11 -14 15 -14 31 1 10 9 16 22
12 28 -4 6 -6 23 -5 38 2 30 -9 36 -26 15z"/>
<path d="M2055 3800 c-3 -5 -1 -10 4 -10 6 0 11 5 11 10 0 6 -2 10 -4 10 -3 0
-8 -4 -11 -10z"/>
<path d="M2662 3759 c2 -19 8 -33 13 -31 15 3 12 55 -3 60 -10 3 -13 -5 -10
-29z"/>
<path d="M2520 3759 c0 -24 23 -21 28 4 2 10 -3 17 -12 17 -10 0 -16 -9 -16
-21z"/>
<path d="M2558 3712 c-18 -3 -26 -32 -9 -32 10 0 36 29 30 33 -2 2 -12 2 -21
-1z"/>
<path d="M2192 3639 c3 -23 33 -48 43 -37 3 3 0 17 -6 32 -15 32 -42 35 -37 5z"/>
<path d="M4562 1168 c-26 -26 -7 -135 26 -146 9 -3 12 17 12 77 0 82 -9 98
-38 69z"/>
<path d="M4495 344 c-21 -22 -14 -26 40 -29 50 -2 64 8 45 30 -16 20 -65 19
-85 -1z"/>
</g>
</svg>
