<?xml version="1.0" encoding="UTF-8" standalone="no"?>
<svg
   xmlns:dc="http://purl.org/dc/elements/1.1/"
   xmlns:cc="http://creativecommons.org/ns#"
   xmlns:rdf="http://www.w3.org/1999/02/22-rdf-syntax-ns#"
   xmlns:svg="http://www.w3.org/2000/svg"
   xmlns="http://www.w3.org/2000/svg"
   xmlns:sodipodi="http://sodipodi.sourceforge.net/DTD/sodipodi-0.dtd"
   xmlns:inkscape="http://www.inkscape.org/namespaces/inkscape"
   width="285px"
   height="306px"
   viewBox="13 0 285 306"
   version="1.1"
   id="svg5"
   sodipodi:docname="logo.svg"
   inkscape:version="0.92.3 (2405546, 2018-03-11)">
  <metadata
     id="metadata11">
    <rdf:RDF>
      <cc:Work
         rdf:about="">
        <dc:format>image/svg+xml</dc:format>
        <dc:type
           rdf:resource="http://purl.org/dc/dcmitype/StillImage" />
      </cc:Work>
    </rdf:RDF>
  </metadata>
  <defs
     id="defs9" />
  <sodipodi:namedview
     pagecolor="#ffffff"
     bordercolor="#666666"
     borderopacity="1"
     objecttolerance="10"
     gridtolerance="10"
     guidetolerance="10"
     inkscape:pageopacity="0"
     inkscape:pageshadow="2"
     inkscape:window-width="2872"
     inkscape:window-height="1625"
     id="namedview7"
     showgrid="false"
     inkscape:zoom="2.0149341"
     inkscape:cx="-64.957627"
     inkscape:cy="153"
     inkscape:window-x="-13"
     inkscape:window-y="-13"
     inkscape:window-maximized="1"
     inkscape:current-layer="Group-3" />
  <g
     id="Group-3"
     stroke="none"
     stroke-width="1"
     fill="#515151"
     fill-rule="evenodd"
     transform="translate(13.000000, 0.000000)">
    <path
       d="M 155.40039 0 L 155.40039 14.308594 L 141.55273 14.308594 L 141.55273 105.97266 L 127.25977 105.97266 L 127.25977 119.83398 L 106.26562 119.83398 L 106.26562 134.14258 L 85.271484 134.14258 L 85.271484 148.45117 L 70.976562 148.45117 L 70.976562 162.3125 L 45.068359 162.3125 L 45.068359 148.00391 L 31.222656 148.00391 L 31.222656 134.14258 L 16.927734 134.14258 L 16.927734 105.97266 L 0.84765625 105.97266 L 0.84765625 192.71875 L 14.695312 192.71875 L 14.695312 207.02734 L 28.988281 207.02734 L 28.988281 220.88867 L 42.835938 220.88867 L 42.835938 235.19727 L 57.128906 235.19727 L 57.128906 249.05859 L 70.976562 249.05859 L 70.976562 305.39844 L 101.35156 305.39844 L 101.35156 289.30078 L 87.503906 289.30078 L 87.503906 277.22852 L 101.35156 277.22852 L 101.35156 263.36719 L 115.64648 263.36719 L 115.64648 249.05859 L 127.25977 249.05859 L 127.25977 263.36719 L 141.55273 263.36719 L 141.55273 305.39844 L 171.92773 305.39844 L 171.92773 289.30078 L 157.63477 289.30078 L 157.63477 235.19727 L 171.92773 235.19727 L 171.92773 220.88867 L 185.77539 220.88867 L 185.77539 199.87305 L 200.06836 199.87305 L 200.06836 150.6875 L 211.68359 150.6875 L 211.68359 164.54883 L 228.21094 164.54883 L 228.21094 134.14258 L 200.06836 134.14258 L 200.06836 108.20898 L 256.35156 108.20898 L 256.35156 91.664062 L 213.91602 91.664062 L 213.91602 80.039062 L 284.49219 80.039062 L 284.49219 14.308594 L 270.19922 14.308594 L 270.19922 0 L 155.40039 0 z M 169.24805 20.568359 L 186.22266 20.568359 L 186.22266 37.560547 L 169.24805 37.560547 L 169.24805 20.568359 z "
       id="Path" />
  </g>
</svg>
