<?xml version="1.0" standalone="no"?>
<!DOCTYPE svg PUBLIC "-//W3C//DTD SVG 20010904//EN"
 "http://www.w3.org/TR/2001/REC-SVG-20010904/DTD/svg10.dtd">
<svg version="1.0" xmlns="http://www.w3.org/2000/svg"
 width="460.000000pt" height="460.000000pt" viewBox="0 0 460.000000 460.000000"
 preserveAspectRatio="xMidYMid meet">
<metadata>
Created by potrace 1.11, written by Peter Selinger 2001-2013
</metadata>
<g transform="translate(0.000000,460.000000) scale(0.100000,-0.100000)"
fill="#000000" stroke="none">
<path d="M0 2300 l0 -2300 1578 0 1578 0 13 67 c18 99 20 102 36 72 12 -22 12
-33 -1 -74 -7 -27 -14 -52 -14 -57 0 -4 92 -8 205 -8 l204 0 -27 58 c-15 31
-34 67 -42 78 -28 40 -93 65 -187 72 l-88 7 2 51 c0 31 8 63 19 79 11 17 17
43 16 69 -3 51 12 159 33 251 20 84 26 168 16 239 -8 56 0 85 36 129 l21 28 6
-28 c7 -38 14 -97 21 -168 6 -66 8 -70 38 -70 17 0 27 -14 48 -65 15 -36 33
-84 40 -108 7 -24 19 -51 26 -60 15 -18 14 8 -3 146 -4 28 -4 52 0 52 4 0 24
-17 45 -37 20 -21 49 -48 63 -60 24 -22 88 -136 88 -159 0 -6 29 -42 64 -81
35 -40 67 -84 70 -100 3 -15 10 -59 16 -98 14 -89 41 -196 53 -212 14 -19 367
-18 367 0 0 15 -43 98 -80 152 -14 22 -32 56 -40 75 -7 19 -37 60 -65 90 -48
50 -75 88 -75 105 0 4 18 4 39 0 21 -3 41 -2 45 3 8 14 66 12 101 -3 18 -7 44
-11 58 -8 22 4 95 -12 211 -48 15 -5 32 -6 37 -3 5 3 9 0 9 -5 0 -6 5 -11 10
-11 19 0 10 25 -12 35 -14 6 -22 17 -20 28 2 10 -3 17 -13 17 -8 0 -15 -7 -15
-16 0 -10 -7 -14 -22 -12 -27 4 -33 21 -13 41 14 14 18 67 5 67 -15 0 -30 -27
-30 -56 0 -35 -30 -53 -50 -29 -6 7 -19 11 -28 8 -10 -2 -26 5 -36 16 -12 13
-14 21 -7 21 9 0 10 13 5 46 -5 33 -3 48 6 54 10 6 7 12 -9 26 -11 10 -21 24
-21 31 0 6 -9 13 -20 15 -15 2 -17 7 -10 18 7 10 12 12 18 4 10 -15 36 -3 40
18 1 9 -6 19 -17 23 -13 4 -17 12 -14 25 3 11 9 17 14 14 5 -3 9 -1 9 5 0 5
-10 13 -22 17 -13 4 -26 12 -30 18 -9 14 -18 4 -24 -29 -3 -15 -1 -24 5 -21
11 7 9 -27 -3 -35 -5 -4 -17 0 -27 9 -14 12 -15 18 -6 24 7 4 3 6 -10 5 -12 0
-19 -5 -16 -10 3 -5 -4 -4 -16 2 -11 7 -21 8 -21 4 0 -4 -5 -2 -12 5 -8 8 -8
15 2 27 11 14 11 18 1 25 -9 5 -10 10 -2 14 6 4 11 4 11 0 0 -4 8 2 18 13 9
10 28 26 41 35 l23 17 -36 37 c-20 20 -36 40 -36 44 0 3 -8 15 -19 26 -26 29
-36 64 -18 64 32 0 241 -166 315 -251 27 -31 84 -59 121 -59 8 0 11 498 11
1930 l0 1930 -2300 0 -2300 0 0 -2300z m3841 2183 c-8 -47 -31 -57 -31 -13 0
39 19 78 29 61 4 -7 5 -28 2 -48z m-599 -153 c10 0 18 -4 18 -10 0 -5 5 -10
11 -10 13 0 98 -91 99 -106 0 -6 11 -17 25 -24 13 -7 28 -22 31 -33 4 -12 26
-48 49 -82 61 -87 94 -171 99 -252 3 -38 16 -112 30 -166 14 -53 26 -106 26
-117 0 -25 40 -62 62 -57 9 3 15 0 13 -7 -16 -52 -15 -66 4 -66 12 0 21 -9 25
-25 6 -25 44 -67 55 -61 3 2 7 -11 8 -29 1 -28 -2 -32 -18 -28 -10 3 -19 9
-19 14 0 5 -18 28 -40 51 -22 24 -40 39 -40 35 0 -10 52 -90 64 -98 5 -4 6
-14 3 -22 -4 -11 -1 -14 9 -10 8 3 14 -1 14 -11 0 -9 4 -16 8 -16 5 0 14 -12
21 -27 10 -22 14 -24 23 -12 8 12 9 11 5 -3 -3 -9 5 -31 19 -49 27 -36 29 -44
13 -33 -8 4 -9 -1 -4 -16 5 -16 4 -21 -6 -18 -8 3 -13 13 -11 23 2 10 -1 14
-7 10 -6 -3 -11 2 -11 12 -1 20 -50 105 -50 86 0 -7 -7 -13 -16 -13 -12 0 -9
-7 10 -33 18 -23 25 -45 24 -71 -1 -25 -4 -34 -12 -26 -21 21 -24 7 -21 -97 3
-60 5 -117 5 -128 1 -10 6 -25 11 -32 6 -6 8 -17 4 -23 -4 -6 1 -22 9 -35 13
-20 14 -25 3 -25 -10 0 -14 -23 -14 -100 l-1 -99 22 26 c31 35 46 23 46 -38 0
-34 4 -48 11 -43 6 3 9 22 7 43 -4 27 3 50 29 97 18 33 33 75 33 92 0 36 1 36
-34 22 -55 -20 -68 41 -19 88 30 28 34 28 63 -3 21 -23 24 -34 22 -98 -3 -69
-14 -132 -32 -166 -4 -9 -12 -38 -18 -66 -27 -138 -54 -239 -87 -325 -20 -52
-45 -122 -56 -155 -21 -64 -42 -95 -76 -114 -28 -15 -33 -14 -33 5 0 22 -17 9
-23 -18 -37 -167 -80 -358 -84 -378 -12 -61 -44 -157 -57 -175 -15 -20 -15
-20 -16 3 0 37 -15 25 -17 -14 -2 -40 -23 -73 -24 -38 0 16 -2 15 -10 -5 -5
-14 -7 -31 -5 -38 8 -19 -18 -27 -43 -13 -18 9 -21 8 -21 -9 0 -11 -5 -23 -11
-26 -6 -4 -8 -14 -5 -24 4 -9 -2 -7 -14 8 -21 25 -26 21 -10 -9 8 -14 5 -19
-13 -25 -12 -4 -26 -7 -30 -6 -5 1 -5 -8 -2 -20 6 -18 4 -21 -9 -16 -10 4 -16
1 -16 -9 0 -9 -6 -14 -12 -11 -7 2 -22 0 -32 -6 -16 -8 -18 -6 -13 7 4 9 2 16
-3 16 -6 0 -10 -4 -10 -10 0 -5 -6 -7 -14 -4 -11 4 -14 -1 -12 -20 2 -14 -1
-23 -5 -20 -5 3 -9 19 -9 35 0 17 -6 32 -15 35 -8 4 -15 11 -15 17 0 6 3 7 7
4 11 -12 33 15 33 40 0 26 45 123 61 134 12 7 -4 54 -26 75 -8 8 -12 21 -9 29
7 18 6 18 -35 4 -36 -13 -37 -16 -15 -47 15 -22 15 -24 -5 -29 -26 -7 -26 -14
-1 -41 12 -12 16 -22 11 -22 -5 0 -13 5 -16 10 -3 6 -15 10 -25 10 -10 0 -25
6 -32 13 -15 16 -61 29 -52 16 3 -5 1 -9 -5 -9 -5 0 -13 5 -16 10 -10 16 -38
12 -31 -5 6 -17 -19 -21 -29 -5 -11 17 -38 12 -31 -6 4 -12 2 -15 -9 -10 -17
6 -19 -2 -5 -24 6 -10 10 -11 10 -2 0 22 16 12 18 -12 1 -13 -8 -32 -19 -42
-18 -16 -36 -19 -124 -18 -56 1 -126 7 -155 13 -44 10 -65 9 -122 -5 l-68 -17
-59 27 c-32 14 -62 26 -67 26 -16 1 -54 38 -54 53 0 8 17 26 38 40 l39 25 18
-24 c21 -28 100 -66 130 -62 15 2 21 12 23 36 2 17 8 32 13 32 16 0 4 82 -14
95 -22 16 -22 53 0 77 13 14 13 18 2 18 -8 0 -25 19 -39 42 -14 23 -34 51 -45
62 -33 35 -104 197 -115 264 -8 47 -8 78 1 120 13 62 14 198 1 277 -14 89 3
167 68 310 15 33 28 75 29 94 1 21 9 40 21 48 32 23 20 73 -18 73 -18 0 -43
26 -40 42 2 7 -4 12 -14 10 -12 -2 -16 2 -12 13 4 10 0 15 -15 15 -12 0 -21 6
-21 15 0 8 -4 15 -8 15 -5 0 -13 17 -18 38 -8 31 -13 37 -33 34 -33 -3 -45 10
-61 68 -9 32 -19 50 -29 50 -11 0 -12 3 -4 11 8 8 3 23 -19 55 -16 25 -31 50
-32 57 -1 7 -4 17 -7 22 -16 29 -16 45 2 64 11 12 17 21 13 21 -3 0 -1 7 6 15
6 8 9 18 6 23 -3 4 4 15 15 22 10 8 19 20 19 27 0 12 79 28 102 21 7 -3 21 13
34 37 20 41 24 54 25 98 2 35 20 77 35 77 7 0 12 8 12 18 -1 9 2 29 5 45 5 17
3 27 -3 27 -7 0 -7 7 1 21 9 17 8 23 -2 30 -11 7 -9 9 6 9 15 0 17 2 6 9 -7 5
-15 22 -17 39 -3 25 0 30 12 25 14 -5 15 -3 5 15 -9 18 -6 26 23 56 18 20 40
36 47 36 8 0 37 12 64 25 28 14 64 25 80 25 17 0 43 7 59 15 16 9 36 13 43 11
7 -3 13 1 13 9 0 8 11 17 25 21 14 3 25 11 25 16 0 6 15 8 33 6 29 -3 33 -1
29 14 -2 10 -16 28 -31 41 -53 45 -55 60 -3 24 50 -35 55 -37 66 -21 8 11 20
15 30 11 19 -8 56 12 56 30 0 6 10 13 23 15 14 2 23 11 25 26 3 17 10 22 35
22 18 0 41 7 51 15 11 8 32 15 47 15 33 0 95 34 103 57 5 12 9 14 18 5 7 -7
20 -12 30 -12z m608 -775 c0 -8 -4 -15 -9 -15 -5 0 -11 7 -15 15 -3 9 0 15 9
15 8 0 15 -7 15 -15z m-124 -50 c-14 -14 -16 -14 -16 -2 0 9 6 17 13 20 19 7
21 -1 3 -18z m14 -75 c0 -5 -4 -10 -10 -10 -5 0 -10 5 -10 10 0 6 5 10 10 10
6 0 10 -4 10 -10z m125 -300 c3 -5 1 -10 -4 -10 -6 0 -11 5 -11 10 0 6 2 10 4
10 3 0 8 -4 11 -10z m-455 -1980 c0 -5 -4 -10 -10 -10 -5 0 -10 5 -10 10 0 6
5 10 10 10 6 0 10 -4 10 -10z m-35 -10 c-3 -5 -11 -10 -16 -10 -6 0 -7 5 -4
10 3 6 11 10 16 10 6 0 7 -4 4 -10z m-868 -6 c-3 -3 -12 -4 -19 -1 -8 3 -5 6
6 6 11 1 17 -2 13 -5z m68 -4 c3 -6 -5 -10 -19 -10 -14 0 -28 5 -31 10 -3 6 5
10 19 10 14 0 28 -4 31 -10z m443 -8 c10 -3 13 -1 8 6 -4 7 -1 12 9 12 9 0 14
-4 10 -9 -3 -5 -1 -12 4 -15 9 -6 9 -51 -1 -61 -9 -9 4 -65 16 -65 6 -1 5 -6
-4 -13 -8 -7 -16 -24 -17 -39 -2 -25 1 -28 30 -27 25 0 28 2 13 8 -13 5 -16
10 -8 15 14 9 52 -10 52 -27 0 -7 4 -6 10 3 5 8 10 12 10 7 0 -8 -21 -48 -30
-57 -3 -3 -13 -22 -22 -43 -22 -47 -47 -58 -66 -29 -8 12 -21 22 -30 22 -8 0
-24 7 -34 17 -22 20 -33 12 -19 -15 8 -16 7 -21 -5 -26 -13 -5 -8 -12 21 -31
20 -14 41 -23 46 -20 5 4 9 1 9 -4 0 -9 -37 -16 -63 -12 -4 0 -6 -3 -5 -8 4
-11 -10 -11 -40 0 -31 12 -32 12 -32 -6 0 -8 5 -15 10 -15 6 0 10 -9 10 -20 0
-11 -7 -20 -15 -20 -8 0 -15 6 -15 13 0 9 -3 8 -9 -2 -5 -8 -14 -10 -22 -6 -9
6 -10 3 -5 -11 5 -10 10 -28 13 -39 4 -19 4 -19 -10 -2 -8 9 -20 17 -28 17
-23 0 -66 -34 -62 -47 3 -8 -4 -13 -16 -13 -12 0 -21 -4 -21 -10 0 -5 -7 -10
-15 -10 -8 0 -15 -5 -15 -11 0 -5 -4 -7 -10 -4 -5 3 -19 1 -30 -5 -16 -9 -18
-8 -14 5 4 10 0 15 -11 15 -9 0 -19 -9 -22 -20 -5 -19 -6 -20 -19 -3 -9 12
-13 14 -14 5 0 -7 -4 -11 -9 -7 -5 3 -12 1 -16 -4 -3 -6 -13 -7 -22 -4 -11 4
-14 3 -9 -5 10 -17 -16 -15 -39 2 -11 8 -24 12 -30 10 -5 -2 -19 9 -30 26 -11
16 -27 30 -35 31 -8 1 -1 5 15 9 22 6 25 8 9 9 -12 0 -24 9 -27 20 -3 15 2 21
22 26 14 4 33 13 41 20 20 19 60 26 152 28 42 1 79 5 82 8 10 9 15 110 5 104
-5 -4 -9 -14 -9 -23 -1 -15 -2 -15 -15 2 -19 25 -19 36 0 36 17 0 20 16 5 25
-5 3 -10 1 -10 -6 0 -8 -4 -8 -15 1 -8 7 -15 19 -15 26 0 11 -11 13 -53 8
l-53 -6 -16 39 c-15 38 -33 48 -63 32 -8 -4 -93 -4 -116 0 -3 1 -16 11 -29 24
-25 22 -27 23 -56 26 -26 2 -6 18 28 24 18 3 50 10 70 15 43 11 48 8 48 -30 0
-16 4 -27 9 -24 4 3 6 16 4 29 -4 21 0 25 41 36 25 6 49 10 53 9 9 -3 178 36
257 58 26 8 56 14 65 14 9 0 34 7 56 15 38 14 123 13 163 -3z m-358 0 c0 -5
-13 -7 -30 -4 -16 2 -30 6 -30 8 0 2 14 4 30 4 17 0 30 -4 30 -8z m50 -12 c0
-5 -6 -10 -14 -10 -8 0 -18 5 -21 10 -3 6 3 10 14 10 12 0 21 -4 21 -10z
m-260 -200 c0 -5 -2 -10 -4 -10 -3 0 -8 5 -11 10 -3 6 -1 10 4 10 6 0 11 -4
11 -10z m1733 -24 c9 -7 17 -17 17 -22 0 -4 -5 -3 -12 4 -7 7 -25 12 -40 12
-15 0 -28 5 -28 10 0 14 42 12 63 -4z m-563 -77 c0 -15 -5 -20 -22 -17 -34 5
-37 38 -4 38 20 0 26 -5 26 -21z m-585 -49 c3 -5 -1 -10 -10 -10 -9 0 -13 5
-10 10 3 6 8 10 10 10 2 0 7 -4 10 -10z m25 -122 c0 -13 -39 -58 -51 -58 -5 0
1 16 12 35 21 35 39 46 39 23z m-74 -90 c-9 -5 -21 -6 -28 -2 -8 5 -5 10 8 14
25 10 41 0 20 -12z"/>
<path d="M3647 3455 c18 -25 33 -32 33 -17 0 10 -33 42 -44 42 -4 0 1 -11 11
-25z"/>
<path d="M3660 3320 c0 -5 9 -14 19 -19 16 -9 18 -8 14 9 -5 20 -33 29 -33 10z"/>
<path d="M2545 3184 c-10 -8 -15 -14 -9 -14 5 0 2 -5 -6 -10 -15 -9 -20 -30
-22 -82 0 -16 -4 -28 -8 -28 -12 0 -19 -39 -9 -46 5 -3 9 -10 9 -15 0 -6 -4
-7 -10 -4 -12 7 -13 -2 -11 -69 1 -31 -3 -52 -11 -58 -10 -6 -10 -10 2 -18 8
-5 10 -10 4 -10 -15 0 -17 -87 -2 -103 7 -8 19 -12 28 -10 8 2 34 -10 58 -26
23 -17 50 -31 61 -31 23 0 22 -17 -2 -53 -9 -15 -17 -34 -17 -43 0 -21 39 -53
65 -54 11 0 25 -10 30 -22 6 -13 24 -27 43 -32 17 -5 32 -13 32 -17 0 -5 6 -9
13 -9 7 0 13 -9 14 -20 1 -11 -3 -20 -8 -20 -6 0 -7 -4 -4 -10 3 -5 -3 -10
-14 -10 -12 0 -21 -4 -21 -9 0 -6 12 -9 28 -7 15 1 34 -3 42 -9 23 -18 49 -25
55 -15 4 6 25 7 48 4 l42 -5 -22 19 c-13 11 -23 23 -23 26 0 4 10 4 23 2 87
-18 93 -17 43 3 -27 11 -53 18 -58 15 -5 -3 -16 0 -25 8 -9 7 -31 18 -49 23
-22 6 -31 14 -26 22 5 9 23 8 72 -4 80 -18 147 -12 194 19 36 23 76 83 76 112
0 9 6 16 14 16 23 0 76 -22 76 -31 0 -5 8 -9 18 -9 9 0 31 -7 47 -16 17 -9 43
-18 59 -20 24 -3 27 -2 16 11 -11 13 -8 15 13 15 34 0 43 17 22 40 -26 29
-171 97 -223 104 -22 4 -28 26 -7 26 11 0 15 5 11 15 -4 11 5 16 34 21 45 7
45 20 1 26 -21 3 -28 1 -24 -9 6 -15 -13 -18 -22 -3 -4 6 -15 8 -24 5 -10 -3
-29 -1 -42 4 -22 9 -20 10 16 11 39 2 39 2 11 10 -16 5 -33 7 -38 4 -4 -3 -8
0 -8 5 0 13 25 14 67 2 20 -6 35 -6 38 0 4 5 -6 9 -22 9 -22 0 -25 2 -13 11
13 9 13 10 0 6 -8 -2 -27 0 -43 4 -18 5 -25 4 -21 -3 4 -6 -1 -8 -15 -4 -11 3
-30 9 -42 12 -11 3 -18 9 -14 12 7 7 -87 31 -126 32 -15 0 -39 7 -55 15 -24
12 -32 12 -49 1 -18 -12 -73 -24 -113 -26 -7 0 -10 -4 -7 -10 4 -6 -10 -10
-35 -10 -26 0 -39 4 -35 10 4 6 1 18 -6 26 -10 12 -10 17 -1 23 6 4 10 18 7
31 -3 13 1 27 8 32 9 5 9 12 1 25 -6 10 -11 38 -12 61 -1 32 -10 53 -31 80
-17 19 -28 39 -25 43 9 15 -12 17 -31 3z m479 -343 c4 -5 -3 -7 -14 -4 -23 6
-26 13 -6 13 8 0 17 -4 20 -9z m173 -107 c-3 -3 -12 -4 -19 -1 -8 3 -5 6 6 6
11 1 17 -2 13 -5z m-49 -133 c11 -6 10 -9 -5 -13 -22 -6 -43 0 -43 13 0 11 31
12 48 0z m207 -41 c3 -5 1 -10 -4 -10 -6 0 -11 5 -11 10 0 6 2 10 4 10 3 0 8
-4 11 -10z m-515 -150 c0 -5 -7 -10 -16 -10 -8 0 -12 5 -9 10 3 6 10 10 16 10
5 0 9 -4 9 -10z"/>
<path d="M3075 2850 c-3 -5 1 -10 9 -10 9 0 16 5 16 10 0 6 -4 10 -9 10 -6 0
-13 -4 -16 -10z"/>
<path d="M3240 2789 c0 -5 9 -9 20 -9 11 0 20 2 20 4 0 2 -9 6 -20 9 -11 3
-20 1 -20 -4z"/>
<path d="M2700 2391 c0 -5 6 -14 14 -20 10 -9 17 -7 27 6 9 11 10 14 2 9 -7
-4 -13 -2 -13 3 0 6 -7 11 -15 11 -8 0 -15 -4 -15 -9z"/>
<path d="M2830 1723 c1 -38 39 -101 90 -146 61 -55 96 -75 125 -73 29 3 32 13
11 38 -13 15 -15 23 -7 26 8 3 6 9 -7 20 -10 10 -21 25 -25 35 -4 11 -14 17
-24 15 -12 -2 -22 6 -30 24 -7 16 -19 28 -28 28 -9 0 -13 4 -10 10 3 5 -7 12
-22 15 -15 4 -36 10 -45 16 -24 13 -28 12 -28 -8z"/>
<path d="M2605 1532 c-42 -22 -47 -27 -27 -30 20 -3 112 41 112 53 0 12 -40 2
-85 -23z"/>
<path d="M3166 1435 c4 -8 11 -15 18 -15 6 0 27 -23 46 -50 19 -27 38 -50 41
-50 18 0 -8 60 -39 93 -36 37 -77 51 -66 22z"/>
<path d="M2598 1389 c-10 -5 -18 -17 -18 -24 0 -8 -5 -15 -11 -15 -5 0 -8 -4
-4 -10 9 -14 57 11 51 27 -3 8 -1 11 4 8 6 -3 10 1 10 9 0 18 -8 20 -32 5z"/>
<path d="M2541 1381 c-9 -6 -10 -14 -4 -25 8 -15 11 -14 21 9 12 26 7 31 -17
16z"/>
<path d="M2645 1350 c3 -5 13 -10 22 -10 9 0 25 -7 35 -17 15 -14 18 -14 18
-1 0 8 -11 20 -25 26 -32 15 -58 16 -50 2z"/>
<path d="M2655 1310 c3 -5 8 -10 11 -10 2 0 4 5 4 10 0 6 -5 10 -11 10 -5 0
-7 -4 -4 -10z"/>
<path d="M3382 1220 c0 -14 2 -19 5 -12 2 6 2 18 0 25 -3 6 -5 1 -5 -13z"/>
<path d="M3055 800 c3 -5 8 -10 11 -10 2 0 4 5 4 10 0 6 -5 10 -11 10 -5 0 -7
-4 -4 -10z"/>
<path d="M2896 772 c-3 -6 -1 -14 5 -17 15 -10 25 3 12 16 -7 7 -13 7 -17 1z"/>
<path d="M2930 750 c0 -5 5 -10 10 -10 6 0 10 5 10 10 0 6 -4 10 -10 10 -5 0
-10 -4 -10 -10z"/>
<path d="M4400 480 c14 -27 29 -34 23 -11 -3 11 -11 22 -19 25 -11 4 -12 2 -4
-14z"/>
</g>
</svg>
